<!--
  Note by Alex Muravev from https://thenounproject.com/browse/icons/term/note
-->
<svg viewBox="80 10 540 540" xmlns="http://www.w3.org/2000/svg">
  <path
    stroke="black"
    stroke-width="3"
    d="m589.12 31.922c1.1211-13.441-7.2812-19.039-20.16-14-11.762 5.0391-22.961 10.078-33.602 16.238-89.602 50.398-171.92 111.44-260.96 162.96-7.2812 3.9219-10.078 10.078-11.199 18.48-3.9219 43.68-7.2812 87.922-7.8398 132.16 0 20.719-2.8008 40.879-5.0391 63.84-19.602-17.359-38.641-21.84-62.719-18.48-40.32 5.6016-84 56.559-77.84 96.879 6.7188 43.121 67.199 70 104.16 46.48 5.0391-3.3594 5.6016-6.7188 7.2812-16.238-12.32 8.3984-22.398 7.8398-31.922 9.5195-27.441 6.1602-64.398-19.602-65.52-45.359-1.1211-20.719 17.922-54.32 36.961-66.078 7.8398-8.9609 19.602-15.121 35.281-15.121 10.641 0 19.039 2.8008 26.32 7.2812 14.559 6.7188 22.961 19.039 26.879 35.84 3.9219 16.238 3.3594 30.801-10.078 42.559-6.1602 5.6016-12.32 10.641-18.48 16.238-2.8008 2.8008-3.9219 6.7188-1.6797 10.078 1.6797 2.2383 3.9219 2.2383 6.7188 1.6797 19.602-4.4805 39.762-31.922 38.641-52.641-3.3594-57.121 3.3594-114.24 6.7188-171.36 0.55859-5.6016 1.6797-8.9609 6.7188-11.762 42.559-24.078 84.559-48.719 127.12-73.359 42.559-24.078 85.121-48.16 127.68-72.238 5.6016-3.3594 15.121-7.2812 10.641-15.121-3.9219-7.2812-11.199 1.1211-16.238 3.3594-52.645 25.762-103.04 57.121-154.57 86.801-33.039 19.039-66.078 38.641-101.36 59.359 2.2383-17.922 2.8008-33.602 5.6016-48.719 1.1211-5.6016 6.1602-10.641 11.762-14 43.121-26.879 85.68-54.32 128.24-82.32 45.918-29.68 90.16-59.918 138.32-84.559 4.4805-2.2383 10.078-8.9609 14.559-3.9219 3.9219 3.9219 5.6016 10.078 3.9219 17.359-3.3594 15.121-5.0391 30.801-6.7188 46.48-3.9219 51.52-7.8398 102.48-11.762 156.8-25.762-16.801-46.48-8.9609-67.762 6.1602-14.559 10.078-17.922 26.879-30.238 37.52-11.762 10.641-14 25.199-10.078 39.762 6.7188 26.879 31.922 41.441 61.039 35.84 48.719-8.9609 59.359-20.16 64.961-64.398 1.1211-7.2812-0.55859-14-2.2383-20.16-7.8398-33.039 0.55859-65.52 1.6797-97.441 3.3555-54.32 11.754-108.08 16.797-162.4zm-52.082 319.76c-18.48 8.9609-36.961 18.48-58.238 5.6016-19.039-11.762-22.961-30.238-8.3984-44.801 1.1211-12.32 7.2812-23.52 18.48-29.68 2.2383-1.6797 4.4805-3.3594 6.7188-5.0391 12.32-7.8398 23.52-20.16 40.32-12.32 15.121 7.2812 19.039 15.121 20.16 43.121 3.918 16.797 0.55859 34.156-19.043 43.117z"
  />
</svg>
