<!--
  Music Note by James Cottell from thenounproject.com
 -->
<svg xmlns="http://www.w3.org/2000/svg" viewBox="60 40 590 480">
  <path
    stroke="black"
    stroke-width="10"
    d="m638.11 91.098c-6.7969 89.355-26.062 200.38-44.863 291.63-11.367 55.207-9.3125 114.52-54.832 129.61-27.035 8.9609-63.637-9.8555-67.301-34.887-8.6016-58.945 65.355-101.08 104.69-57.324 13.102-79.961 22.719-163.41 37.379-241.79-55.273-15.016-130.07-21.246-190.53-24.883-7.5898 99.668-35.305 186.77-46.254 289.1-13.484 18.719-30.492 45.297-62.312 42.375-15.578-1.4375-38.895-17.148-42.375-32.418-11.254-49.41 49.426-93.004 99.699-62.312 15.414-76.812 25.938-158.52 37.387-239.28-58.848-8.7188-120.29-8.2852-179.46-14.957-12.734 39.246-14.613 90.91-22.43 139.58-3.6406 22.637-10.598 45.461-14.957 67.309-9.3477 46.676-9.668 90.363-47.363 109.66-108.44 29.719-95.93-118.14-4.9883-109.66 18.246 1.6914 16.25 12.652 37.387 14.949 14.492-58.453 19.289-136.35 34.902-209.37 8.6172-40.293 9.2812-79.152 27.418-102.2 103.03 5.7656 212.37 21.637 311.57 32.406 30.098 3.2617 61.012-3.3633 87.246 12.461zm-393.81-34.902c-6.7148 17.238-8.6172 45.723-14.957 69.797 48.707 1.0977 102.02 8.4141 139.65 9.7148 86.992 13.852 169.64 11.254 249.18 35.148-0.79297-26.551 7.5898-43.922 9.9766-67.301 0.48438-3.3281 4.3906-8.9609-7.4805-9.9688-122.11-8.7109-257.13-29.934-376.37-37.391zm-104.69 386.36c21.434-12.781 37.324-43.891 27.418-79.758-69.785-54.086-129.63 90.461-27.418 79.758zm149.55 9.9531c34.191 53.504 91.156-6.8516 79.758-57.324-39.715-25.125-88.746-1.0742-79.758 57.324zm264.2-39.883c-66.934-29.383-92.457 85.359-32.391 89.75 38.656 2.8125 51.223-34.043 54.824-72.305-10.789 2.3984-12.344-12.402-22.434-17.445z"
    fill-rule="evenodd"
  />
</svg>
